<?xml version="1.0" encoding="UTF-8" standalone="no"?>
<!DOCTYPE svg PUBLIC "-//W3C//DTD SVG 1.1//EN"
 "http://www.w3.org/Graphics/SVG/1.1/DTD/svg11.dtd">
<!-- Generated by graphviz version 14.1.5 (20260411.2331)
 -->
<!-- Title: G Pages: 1 -->
<svg width="1138pt" height="691pt"
 viewBox="0.00 0.00 1138.00 691.00" xmlns="http://www.w3.org/2000/svg" xmlns:xlink="http://www.w3.org/1999/xlink">
<g id="graph0" class="graph" transform="scale(1 1) rotate(0) translate(21.6 669.35)">
<title>G</title>
<polygon fill="#111111" stroke="none" points="-21.6,21.6 -21.6,-669.35 1116.6,-669.35 1116.6,21.6 -21.6,21.6"/>
<!-- ../resources/DormDealsLogo.png -->
<g id="node1" class="node">
<title>../resources/DormDealsLogo.png</title>
<path fill="none" stroke="#cfffac" d="M452.96,-479.75C452.96,-479.75 254.04,-479.75 254.04,-479.75 250.08,-479.75 246.12,-475.79 246.12,-471.83 246.12,-471.83 246.12,-463.92 246.12,-463.92 246.12,-459.96 250.08,-456 254.04,-456 254.04,-456 452.96,-456 452.96,-456 456.92,-456 460.88,-459.96 460.88,-463.92 460.88,-463.92 460.88,-471.83 460.88,-471.83 460.88,-475.79 456.92,-479.75 452.96,-479.75"/>
<text xml:space="preserve" text-anchor="middle" x="353.5" y="-462.45" font-family="Arial" font-size="14.00" fill="#cfffac">../resources/DormDealsLogo.png</text>
</g>
<!-- App.tsx -->
<g id="node2" class="node">
<title>App.tsx</title>
<path fill="none" stroke="#c6c5fe" d="M183.46,-381.75C183.46,-381.75 138.29,-381.75 138.29,-381.75 134.33,-381.75 130.38,-377.79 130.38,-373.83 130.38,-373.83 130.38,-365.92 130.38,-365.92 130.38,-361.96 134.33,-358 138.29,-358 138.29,-358 183.46,-358 183.46,-358 187.42,-358 191.38,-361.96 191.38,-365.92 191.38,-365.92 191.38,-373.83 191.38,-373.83 191.38,-377.79 187.42,-381.75 183.46,-381.75"/>
<text xml:space="preserve" text-anchor="middle" x="160.88" y="-364.45" font-family="Arial" font-size="14.00" fill="#c6c5fe">App.tsx</text>
</g>
<!-- App.tsx&#45;&gt;../resources/DormDealsLogo.png -->
<g id="edge1" class="edge">
<title>App.tsx&#45;&gt;../resources/DormDealsLogo.png</title>
<path fill="none" stroke="#757575" d="M170.43,-382.21C182.45,-398.53 205.9,-426.97 233,-441.88 240.16,-445.81 247.87,-449.16 255.81,-451.99"/>
<polygon fill="#757575" stroke="#757575" points="254.7,-455.31 265.29,-455.09 256.87,-448.66 254.7,-455.31"/>
</g>
<!-- api/listing.ts -->
<g id="node3" class="node">
<title>api/listing.ts</title>
<path fill="none" stroke="#c6c5fe" d="M647.46,-165.75C647.46,-165.75 576.79,-165.75 576.79,-165.75 572.83,-165.75 568.88,-161.79 568.88,-157.83 568.88,-157.83 568.88,-149.92 568.88,-149.92 568.88,-145.96 572.83,-142 576.79,-142 576.79,-142 647.46,-142 647.46,-142 651.42,-142 655.38,-145.96 655.38,-149.92 655.38,-149.92 655.38,-157.83 655.38,-157.83 655.38,-161.79 651.42,-165.75 647.46,-165.75"/>
<text xml:space="preserve" text-anchor="middle" x="612.12" y="-148.45" font-family="Arial" font-size="14.00" fill="#c6c5fe">api/listing.ts</text>
</g>
<!-- App.tsx&#45;&gt;api/listing.ts -->
<g id="edge2" class="edge">
<title>App.tsx&#45;&gt;api/listing.ts</title>
<path fill="none" stroke="#757575" d="M169.23,-357.55C180.65,-339.46 204.34,-305.81 233,-286.88 326.7,-224.96 368.49,-249.36 474,-210.88 508,-198.48 545.94,-182.54 573.28,-170.67"/>
<polygon fill="#757575" stroke="#757575" points="574.42,-173.99 582.18,-166.78 571.62,-167.57 574.42,-173.99"/>
</g>
<!-- components/AddListingButton.tsx -->
<g id="node4" class="node">
<title>components/AddListingButton.tsx</title>
<path fill="none" stroke="#cfffac" d="M454.08,-647.75C454.08,-647.75 252.92,-647.75 252.92,-647.75 248.96,-647.75 245,-643.79 245,-639.83 245,-639.83 245,-631.92 245,-631.92 245,-627.96 248.96,-624 252.92,-624 252.92,-624 454.08,-624 454.08,-624 458.04,-624 462,-627.96 462,-631.92 462,-631.92 462,-639.83 462,-639.83 462,-643.79 458.04,-647.75 454.08,-647.75"/>
<text xml:space="preserve" text-anchor="middle" x="353.5" y="-630.45" font-family="Arial" font-size="14.00" fill="#cfffac">components/AddListingButton.tsx</text>
</g>
<!-- App.tsx&#45;&gt;components/AddListingButton.tsx -->
<g id="edge3" class="edge">
<title>App.tsx&#45;&gt;components/AddListingButton.tsx</title>
<path fill="none" stroke="#757575" d="M161.3,-382.1C160.14,-422.3 162.28,-551.44 233,-614.88 233.92,-615.7 234.86,-616.5 235.82,-617.27"/>
<polygon fill="#757575" stroke="#757575" points="233.48,-619.91 243.71,-622.69 237.45,-614.14 233.48,-619.91"/>
</g>
<!-- components/AddListingForm.tsx -->
<g id="node5" class="node">
<title>components/AddListingForm.tsx</title>
<path fill="none" stroke="#c6c5fe" d="M450.71,-361.75C450.71,-361.75 256.29,-361.75 256.29,-361.75 252.33,-361.75 248.38,-357.79 248.38,-353.83 248.38,-353.83 248.38,-345.92 248.38,-345.92 248.38,-341.96 252.33,-338 256.29,-338 256.29,-338 450.71,-338 450.71,-338 454.67,-338 458.62,-341.96 458.62,-345.92 458.62,-345.92 458.62,-353.83 458.62,-353.83 458.62,-357.79 454.67,-361.75 450.71,-361.75"/>
<text xml:space="preserve" text-anchor="middle" x="353.5" y="-344.45" font-family="Arial" font-size="14.00" fill="#c6c5fe">components/AddListingForm.tsx</text>
</g>
<!-- App.tsx&#45;&gt;components/AddListingForm.tsx -->
<g id="edge4" class="edge">
<title>App.tsx&#45;&gt;components/AddListingForm.tsx</title>
<path fill="none" stroke="#757575" d="M191.66,-366.75C204.46,-365.41 220.31,-363.74 237.03,-361.99"/>
<polygon fill="#757575" stroke="#757575" points="237.04,-365.51 246.62,-360.98 236.31,-358.55 237.04,-365.51"/>
</g>
<!-- components/ConditionRangeFilter.tsx -->
<g id="node6" class="node">
<title>components/ConditionRangeFilter.tsx</title>
<path fill="none" stroke="#c6c5fe" d="M466.08,-563.75C466.08,-563.75 240.92,-563.75 240.92,-563.75 236.96,-563.75 233,-559.79 233,-555.83 233,-555.83 233,-547.92 233,-547.92 233,-543.96 236.96,-540 240.92,-540 240.92,-540 466.08,-540 466.08,-540 470.04,-540 474,-543.96 474,-547.92 474,-547.92 474,-555.83 474,-555.83 474,-559.79 470.04,-563.75 466.08,-563.75"/>
<text xml:space="preserve" text-anchor="middle" x="353.5" y="-546.45" font-family="Arial" font-size="14.00" fill="#c6c5fe">components/ConditionRangeFilter.tsx</text>
</g>
<!-- App.tsx&#45;&gt;components/ConditionRangeFilter.tsx -->
<g id="edge5" class="edge">
<title>App.tsx&#45;&gt;components/ConditionRangeFilter.tsx</title>
<path fill="none" stroke="#757575" d="M163.35,-381.9C167.74,-412.24 183.68,-492.25 233,-530.88 234.32,-531.91 235.68,-532.9 237.06,-533.85"/>
<polygon fill="#757575" stroke="#757575" points="234.92,-536.65 245.3,-538.74 238.49,-530.63 234.92,-536.65"/>
</g>
<!-- components/ListingCard.tsx -->
<g id="node7" class="node">
<title>components/ListingCard.tsx</title>
<path fill="none" stroke="#c6c5fe" d="M695.83,-443.75C695.83,-443.75 528.42,-443.75 528.42,-443.75 524.46,-443.75 520.5,-439.79 520.5,-435.83 520.5,-435.83 520.5,-427.92 520.5,-427.92 520.5,-423.96 524.46,-420 528.42,-420 528.42,-420 695.83,-420 695.83,-420 699.79,-420 703.75,-423.96 703.75,-427.92 703.75,-427.92 703.75,-435.83 703.75,-435.83 703.75,-439.79 699.79,-443.75 695.83,-443.75"/>
<text xml:space="preserve" text-anchor="middle" x="612.12" y="-426.45" font-family="Arial" font-size="14.00" fill="#c6c5fe">components/ListingCard.tsx</text>
</g>
<!-- App.tsx&#45;&gt;components/ListingCard.tsx -->
<g id="edge6" class="edge">
<title>App.tsx&#45;&gt;components/ListingCard.tsx</title>
<path fill="none" stroke="#757575" d="M191.7,-373.99C255.54,-382.8 407.96,-403.84 510.38,-417.97"/>
<polygon fill="#757575" stroke="#757575" points="509.79,-421.42 520.18,-419.32 510.75,-414.49 509.79,-421.42"/>
</g>
<!-- components/ListingDetailsModal.tsx -->
<g id="node8" class="node">
<title>components/ListingDetailsModal.tsx</title>
<path fill="none" stroke="#c6c5fe" d="M461.96,-201.75C461.96,-201.75 245.04,-201.75 245.04,-201.75 241.08,-201.75 237.12,-197.79 237.12,-193.83 237.12,-193.83 237.12,-185.92 237.12,-185.92 237.12,-181.96 241.08,-178 245.04,-178 245.04,-178 461.96,-178 461.96,-178 465.92,-178 469.88,-181.96 469.88,-185.92 469.88,-185.92 469.88,-193.83 469.88,-193.83 469.88,-197.79 465.92,-201.75 461.96,-201.75"/>
<text xml:space="preserve" text-anchor="middle" x="353.5" y="-184.45" font-family="Arial" font-size="14.00" fill="#c6c5fe">components/ListingDetailsModal.tsx</text>
</g>
<!-- App.tsx&#45;&gt;components/ListingDetailsModal.tsx -->
<g id="edge7" class="edge">
<title>App.tsx&#45;&gt;components/ListingDetailsModal.tsx</title>
<path fill="none" stroke="#757575" d="M165.12,-357.57C172.63,-331.36 193.67,-269.58 233,-234.88 247.66,-221.94 266.4,-212.58 284.67,-205.86"/>
<polygon fill="#757575" stroke="#757575" points="285.58,-209.25 293.91,-202.69 283.31,-202.62 285.58,-209.25"/>
</g>
<!-- components/LoginPage.tsx -->
<g id="node9" class="node">
<title>components/LoginPage.tsx</title>
<path fill="none" stroke="#c6c5fe" d="M693.96,-123.75C693.96,-123.75 530.29,-123.75 530.29,-123.75 526.33,-123.75 522.38,-119.79 522.38,-115.83 522.38,-115.83 522.38,-107.92 522.38,-107.92 522.38,-103.96 526.33,-100 530.29,-100 530.29,-100 693.96,-100 693.96,-100 697.92,-100 701.88,-103.96 701.88,-107.92 701.88,-107.92 701.88,-115.83 701.88,-115.83 701.88,-119.79 697.92,-123.75 693.96,-123.75"/>
<text xml:space="preserve" text-anchor="middle" x="612.12" y="-106.45" font-family="Arial" font-size="14.00" fill="#c6c5fe">components/LoginPage.tsx</text>
</g>
<!-- App.tsx&#45;&gt;components/LoginPage.tsx -->
<g id="edge8" class="edge">
<title>App.tsx&#45;&gt;components/LoginPage.tsx</title>
<path fill="none" stroke="#757575" d="M162.13,-357.53C163.6,-321.92 173.06,-218.36 233,-168.88 254.18,-151.39 405.96,-132.69 510.66,-121.66"/>
<polygon fill="#757575" stroke="#757575" points="510.82,-125.16 520.4,-120.64 510.09,-118.2 510.82,-125.16"/>
</g>
<!-- components/MapView.tsx -->
<g id="node10" class="node">
<title>components/MapView.tsx</title>
<path fill="none" stroke="#c6c5fe" d="M430.83,-319.75C430.83,-319.75 276.17,-319.75 276.17,-319.75 272.21,-319.75 268.25,-315.79 268.25,-311.83 268.25,-311.83 268.25,-303.92 268.25,-303.92 268.25,-299.96 272.21,-296 276.17,-296 276.17,-296 430.83,-296 430.83,-296 434.79,-296 438.75,-299.96 438.75,-303.92 438.75,-303.92 438.75,-311.83 438.75,-311.83 438.75,-315.79 434.79,-319.75 430.83,-319.75"/>
<text xml:space="preserve" text-anchor="middle" x="353.5" y="-302.45" font-family="Arial" font-size="14.00" fill="#c6c5fe">components/MapView.tsx</text>
</g>
<!-- App.tsx&#45;&gt;components/MapView.tsx -->
<g id="edge9" class="edge">
<title>App.tsx&#45;&gt;components/MapView.tsx</title>
<path fill="none" stroke="#757575" d="M179.15,-357.61C193.06,-348.32 213.44,-335.98 233,-328.88 240.62,-326.11 248.66,-323.69 256.8,-321.6"/>
<polygon fill="#757575" stroke="#757575" points="257.57,-325.01 266.48,-319.28 255.94,-318.2 257.57,-325.01"/>
</g>
<!-- components/SearchBar.tsx -->
<g id="node11" class="node">
<title>components/SearchBar.tsx</title>
<path fill="none" stroke="#cfffac" d="M434.58,-605.75C434.58,-605.75 272.42,-605.75 272.42,-605.75 268.46,-605.75 264.5,-601.79 264.5,-597.83 264.5,-597.83 264.5,-589.92 264.5,-589.92 264.5,-585.96 268.46,-582 272.42,-582 272.42,-582 434.58,-582 434.58,-582 438.54,-582 442.5,-585.96 442.5,-589.92 442.5,-589.92 442.5,-597.83 442.5,-597.83 442.5,-601.79 438.54,-605.75 434.58,-605.75"/>
<text xml:space="preserve" text-anchor="middle" x="353.5" y="-588.45" font-family="Arial" font-size="14.00" fill="#cfffac">components/SearchBar.tsx</text>
</g>
<!-- App.tsx&#45;&gt;components/SearchBar.tsx -->
<g id="edge10" class="edge">
<title>App.tsx&#45;&gt;components/SearchBar.tsx</title>
<path fill="none" stroke="#757575" d="M162.14,-382.01C163.61,-417.54 173.07,-522 233,-572.88 239.11,-578.06 246.05,-582.17 253.43,-585.41"/>
<polygon fill="#757575" stroke="#757575" points="252.11,-588.65 262.7,-588.9 254.57,-582.1 252.11,-588.65"/>
</g>
<!-- constants/furnitureTypes.ts -->
<g id="node12" class="node">
<title>constants/furnitureTypes.ts</title>
<path fill="none" stroke="#cfffac" d="M434.21,-521.75C434.21,-521.75 272.79,-521.75 272.79,-521.75 268.83,-521.75 264.88,-517.79 264.88,-513.83 264.88,-513.83 264.88,-505.92 264.88,-505.92 264.88,-501.96 268.83,-498 272.79,-498 272.79,-498 434.21,-498 434.21,-498 438.17,-498 442.12,-501.96 442.12,-505.92 442.12,-505.92 442.12,-513.83 442.12,-513.83 442.12,-517.79 438.17,-521.75 434.21,-521.75"/>
<text xml:space="preserve" text-anchor="middle" x="353.5" y="-504.45" font-family="Arial" font-size="14.00" fill="#cfffac">constants/furnitureTypes.ts</text>
</g>
<!-- App.tsx&#45;&gt;constants/furnitureTypes.ts -->
<g id="edge11" class="edge">
<title>App.tsx&#45;&gt;constants/furnitureTypes.ts</title>
<path fill="none" stroke="#757575" d="M165.36,-382.01C173.09,-406.58 194.15,-462.12 233,-488.88 239.35,-493.25 246.33,-496.8 253.63,-499.68"/>
<polygon fill="#757575" stroke="#757575" points="252.49,-502.99 263.08,-502.93 254.77,-496.37 252.49,-502.99"/>
</g>
<!-- context/AuthContext.tsx -->
<g id="node13" class="node">
<title>context/AuthContext.tsx</title>
<path fill="none" stroke="#c6c5fe" d="M683.46,-81.75C683.46,-81.75 540.79,-81.75 540.79,-81.75 536.83,-81.75 532.88,-77.79 532.88,-73.83 532.88,-73.83 532.88,-65.92 532.88,-65.92 532.88,-61.96 536.83,-58 540.79,-58 540.79,-58 683.46,-58 683.46,-58 687.42,-58 691.38,-61.96 691.38,-65.92 691.38,-65.92 691.38,-73.83 691.38,-73.83 691.38,-77.79 687.42,-81.75 683.46,-81.75"/>
<text xml:space="preserve" text-anchor="middle" x="612.12" y="-64.45" font-family="Arial" font-size="14.00" fill="#c6c5fe">context/AuthContext.tsx</text>
</g>
<!-- App.tsx&#45;&gt;context/AuthContext.tsx -->
<g id="edge12" class="edge">
<title>App.tsx&#45;&gt;context/AuthContext.tsx</title>
<path fill="none" stroke="#757575" d="M161.23,-357.57C159.83,-317.11 161.35,-187.26 233,-124.88 243.83,-115.45 412.94,-93.62 521.3,-80.47"/>
<polygon fill="#757575" stroke="#757575" points="521.56,-83.97 531.06,-79.29 520.72,-77.02 521.56,-83.97"/>
</g>
<!-- types/Listing.ts -->
<g id="node14" class="node">
<title>types/Listing.ts</title>
<path fill="none" stroke="#cfffac" d="M884.33,-361.75C884.33,-361.75 794.92,-361.75 794.92,-361.75 790.96,-361.75 787,-357.79 787,-353.83 787,-353.83 787,-345.92 787,-345.92 787,-341.96 790.96,-338 794.92,-338 794.92,-338 884.33,-338 884.33,-338 888.29,-338 892.25,-341.96 892.25,-345.92 892.25,-345.92 892.25,-353.83 892.25,-353.83 892.25,-357.79 888.29,-361.75 884.33,-361.75"/>
<text xml:space="preserve" text-anchor="middle" x="839.62" y="-344.45" font-family="Arial" font-size="14.00" fill="#cfffac">types/Listing.ts</text>
</g>
<!-- App.tsx&#45;&gt;types/Listing.ts -->
<g id="edge13" class="edge">
<title>App.tsx&#45;&gt;types/Listing.ts</title>
<path fill="none" stroke="#757575" d="M179.44,-382.13C193.34,-391.23 213.58,-403.17 233,-409.88 335.44,-445.23 367,-429.74 474,-446.88 490.02,-449.44 493.83,-451.54 510,-452.88 600.47,-460.36 628.85,-483.65 714.25,-452.88 759.39,-436.61 799.76,-396.06 821.56,-370.97"/>
<polygon fill="#757575" stroke="#757575" points="824.23,-373.24 828.01,-363.34 818.88,-368.72 824.23,-373.24"/>
</g>
<!-- api/listing.ts&#45;&gt;types/Listing.ts -->
<g id="edge16" class="edge">
<title>api/listing.ts&#45;&gt;types/Listing.ts</title>
<path fill="none" stroke="#757575" d="M655.66,-158.21C674.83,-161.75 696.99,-168.18 714.25,-179.88 721.73,-184.94 791.77,-283.48 823.33,-328.17"/>
<polygon fill="#757575" stroke="#757575" points="820.46,-330.17 829.09,-336.32 826.18,-326.13 820.46,-330.17"/>
</g>
<!-- firebase/firebase.ts -->
<g id="node16" class="node">
<title>firebase/firebase.ts</title>
<path fill="none" stroke="#cfffac" d="M1087.08,-82.75C1087.08,-82.75 972.92,-82.75 972.92,-82.75 968.96,-82.75 965,-78.79 965,-74.83 965,-74.83 965,-66.92 965,-66.92 965,-62.96 968.96,-59 972.92,-59 972.92,-59 1087.08,-59 1087.08,-59 1091.04,-59 1095,-62.96 1095,-66.92 1095,-66.92 1095,-74.83 1095,-74.83 1095,-78.79 1091.04,-82.75 1087.08,-82.75"/>
<text xml:space="preserve" text-anchor="middle" x="1030" y="-65.45" font-family="Arial" font-size="14.00" fill="#cfffac">firebase/firebase.ts</text>
</g>
<!-- api/listing.ts&#45;&gt;firebase/firebase.ts -->
<g id="edge15" class="edge">
<title>api/listing.ts&#45;&gt;firebase/firebase.ts</title>
<path fill="none" stroke="#757575" d="M655.69,-163.87C673.84,-168.37 695.2,-174 714.25,-179.88 730.51,-184.89 733.49,-189.94 750.25,-192.88 828.5,-206.57 857.19,-226.86 929,-192.88 972.68,-172.2 1003.66,-122.06 1018.69,-92.9"/>
<polygon fill="#757575" stroke="#757575" points="1021.69,-94.73 1022.99,-84.21 1015.42,-91.62 1021.69,-94.73"/>
</g>
<!-- components/AddListingForm.tsx&#45;&gt;types/Listing.ts -->
<g id="edge21" class="edge">
<title>components/AddListingForm.tsx&#45;&gt;types/Listing.ts</title>
<path fill="none" stroke="#757575" d="M458.95,-349.88C555.12,-349.88 694.69,-349.88 775.09,-349.88"/>
<polygon fill="#757575" stroke="#757575" points="775,-353.38 785,-349.88 775,-346.38 775,-353.38"/>
</g>
<!-- api/gemini.ts -->
<g id="node15" class="node">
<title>api/gemini.ts</title>
<path fill="none" stroke="#c6c5fe" d="M650.46,-401.75C650.46,-401.75 573.79,-401.75 573.79,-401.75 569.83,-401.75 565.88,-397.79 565.88,-393.83 565.88,-393.83 565.88,-385.92 565.88,-385.92 565.88,-381.96 569.83,-378 573.79,-378 573.79,-378 650.46,-378 650.46,-378 654.42,-378 658.38,-381.96 658.38,-385.92 658.38,-385.92 658.38,-393.83 658.38,-393.83 658.38,-397.79 654.42,-401.75 650.46,-401.75"/>
<text xml:space="preserve" text-anchor="middle" x="612.12" y="-384.45" font-family="Arial" font-size="14.00" fill="#c6c5fe">api/gemini.ts</text>
</g>
<!-- components/AddListingForm.tsx&#45;&gt;api/gemini.ts -->
<g id="edge19" class="edge">
<title>components/AddListingForm.tsx&#45;&gt;api/gemini.ts</title>
<path fill="none" stroke="#757575" d="M433.59,-362.2C472.66,-368.29 518.9,-375.5 554.4,-381.03"/>
<polygon fill="#757575" stroke="#757575" points="553.61,-384.45 564.03,-382.53 554.69,-377.54 553.61,-384.45"/>
</g>
<!-- constants/emailDomains.ts -->
<g id="node19" class="node">
<title>constants/emailDomains.ts</title>
<path fill="none" stroke="#cfffac" d="M921.08,-141.75C921.08,-141.75 758.17,-141.75 758.17,-141.75 754.21,-141.75 750.25,-137.79 750.25,-133.83 750.25,-133.83 750.25,-125.92 750.25,-125.92 750.25,-121.96 754.21,-118 758.17,-118 758.17,-118 921.08,-118 921.08,-118 925.04,-118 929,-121.96 929,-125.92 929,-125.92 929,-133.83 929,-133.83 929,-137.79 925.04,-141.75 921.08,-141.75"/>
<text xml:space="preserve" text-anchor="middle" x="839.62" y="-124.45" font-family="Arial" font-size="14.00" fill="#cfffac">constants/emailDomains.ts</text>
</g>
<!-- components/AddListingForm.tsx&#45;&gt;constants/emailDomains.ts -->
<g id="edge20" class="edge">
<title>components/AddListingForm.tsx&#45;&gt;constants/emailDomains.ts</title>
<path fill="none" stroke="#757575" d="M459.11,-348.63C538.95,-342.09 646.42,-320.41 714.25,-254.88 749.43,-220.89 713.98,-183.69 750.25,-150.88 751.19,-150.03 752.15,-149.21 753.14,-148.43"/>
<polygon fill="#757575" stroke="#757575" points="754.94,-151.44 761.38,-143.03 751.1,-145.59 754.94,-151.44"/>
</g>
<!-- styles/ConditionRangeFilter.css -->
<g id="node20" class="node">
<title>styles/ConditionRangeFilter.css</title>
<path fill="none" stroke="#cfffac" d="M706.33,-563.75C706.33,-563.75 517.92,-563.75 517.92,-563.75 513.96,-563.75 510,-559.79 510,-555.83 510,-555.83 510,-547.92 510,-547.92 510,-543.96 513.96,-540 517.92,-540 517.92,-540 706.33,-540 706.33,-540 710.29,-540 714.25,-543.96 714.25,-547.92 714.25,-547.92 714.25,-555.83 714.25,-555.83 714.25,-559.79 710.29,-563.75 706.33,-563.75"/>
<text xml:space="preserve" text-anchor="middle" x="612.12" y="-546.45" font-family="Arial" font-size="14.00" fill="#cfffac">styles/ConditionRangeFilter.css</text>
</g>
<!-- components/ConditionRangeFilter.tsx&#45;&gt;styles/ConditionRangeFilter.css -->
<g id="edge22" class="edge">
<title>components/ConditionRangeFilter.tsx&#45;&gt;styles/ConditionRangeFilter.css</title>
<path fill="none" stroke="#757575" d="M474.17,-551.88C482.25,-551.88 490.38,-551.88 498.43,-551.88"/>
<polygon fill="#757575" stroke="#757575" points="498.22,-555.38 508.22,-551.88 498.22,-548.38 498.22,-555.38"/>
</g>
<!-- components/ListingCard.tsx&#45;&gt;types/Listing.ts -->
<g id="edge23" class="edge">
<title>components/ListingCard.tsx&#45;&gt;types/Listing.ts</title>
<path fill="none" stroke="#757575" d="M683.92,-419.54C694.21,-417.07 704.58,-414.19 714.25,-410.88 747.49,-399.47 783.31,-381.21 807.93,-367.64"/>
<polygon fill="#757575" stroke="#757575" points="809.42,-370.82 816.43,-362.88 806,-364.71 809.42,-370.82"/>
</g>
<!-- components/ListingDetailsModal.tsx&#45;&gt;api/listing.ts -->
<g id="edge24" class="edge">
<title>components/ListingDetailsModal.tsx&#45;&gt;api/listing.ts</title>
<path fill="none" stroke="#757575" d="M442.46,-177.54C480.62,-172.18 524.07,-166.09 557.32,-161.42"/>
<polygon fill="#757575" stroke="#757575" points="557.71,-164.9 567.13,-160.05 556.74,-157.97 557.71,-164.9"/>
</g>
<!-- components/ListingDetailsModal.tsx&#45;&gt;context/AuthContext.tsx -->
<g id="edge25" class="edge">
<title>components/ListingDetailsModal.tsx&#45;&gt;context/AuthContext.tsx</title>
<path fill="none" stroke="#757575" d="M381.79,-177.54C406.81,-165.66 444.37,-146.37 474,-124.88 491.82,-111.95 490.49,-101.05 510,-90.88 513.87,-88.86 517.92,-87.03 522.07,-85.38"/>
<polygon fill="#757575" stroke="#757575" points="522.92,-88.8 531.17,-82.14 520.57,-82.2 522.92,-88.8"/>
</g>
<!-- components/ListingDetailsModal.tsx&#45;&gt;types/Listing.ts -->
<g id="edge26" class="edge">
<title>components/ListingDetailsModal.tsx&#45;&gt;types/Listing.ts</title>
<path fill="none" stroke="#757575" d="M470.28,-187.97C558.8,-188.23 672.52,-192.78 714.25,-212.88 766.52,-238.04 806.93,-295.88 826.21,-327.77"/>
<polygon fill="#757575" stroke="#757575" points="823.08,-329.34 831.16,-336.2 829.12,-325.8 823.08,-329.34"/>
</g>
<!-- components/LoginPage.tsx&#45;&gt;firebase/firebase.ts -->
<g id="edge28" class="edge">
<title>components/LoginPage.tsx&#45;&gt;firebase/firebase.ts</title>
<path fill="none" stroke="#757575" d="M702.34,-103.08C777.21,-95.7 882.97,-85.27 953.66,-78.3"/>
<polygon fill="#757575" stroke="#757575" points="953.58,-81.83 963.19,-77.36 952.89,-74.86 953.58,-81.83"/>
</g>
<!-- components/LoginPage.tsx&#45;&gt;constants/emailDomains.ts -->
<g id="edge27" class="edge">
<title>components/LoginPage.tsx&#45;&gt;constants/emailDomains.ts</title>
<path fill="none" stroke="#757575" d="M702.25,-118.99C714.1,-119.93 726.31,-120.91 738.33,-121.87"/>
<polygon fill="#757575" stroke="#757575" points="738.02,-125.36 748.27,-122.66 738.58,-118.38 738.02,-125.36"/>
</g>
<!-- styles/LoginPage.css -->
<g id="node21" class="node">
<title>styles/LoginPage.css</title>
<path fill="none" stroke="#cfffac" d="M903.08,-183.75C903.08,-183.75 776.17,-183.75 776.17,-183.75 772.21,-183.75 768.25,-179.79 768.25,-175.83 768.25,-175.83 768.25,-167.92 768.25,-167.92 768.25,-163.96 772.21,-160 776.17,-160 776.17,-160 903.08,-160 903.08,-160 907.04,-160 911,-163.96 911,-167.92 911,-167.92 911,-175.83 911,-175.83 911,-179.79 907.04,-183.75 903.08,-183.75"/>
<text xml:space="preserve" text-anchor="middle" x="839.62" y="-166.45" font-family="Arial" font-size="14.00" fill="#cfffac">styles/LoginPage.css</text>
</g>
<!-- components/LoginPage.tsx&#45;&gt;styles/LoginPage.css -->
<g id="edge29" class="edge">
<title>components/LoginPage.tsx&#45;&gt;styles/LoginPage.css</title>
<path fill="none" stroke="#757575" d="M684.21,-124.2C694.41,-126.67 704.68,-129.55 714.25,-132.88 731.15,-138.74 733.44,-144.77 750.25,-150.88 755.9,-152.93 761.83,-154.84 767.83,-156.59"/>
<polygon fill="#757575" stroke="#757575" points="766.62,-159.89 777.19,-159.2 768.49,-153.15 766.62,-159.89"/>
</g>
<!-- components/MapView.tsx&#45;&gt;types/Listing.ts -->
<g id="edge31" class="edge">
<title>components/MapView.tsx&#45;&gt;types/Listing.ts</title>
<path fill="none" stroke="#757575" d="M439.1,-315.21C534.98,-323.53 689.09,-336.9 775.19,-344.37"/>
<polygon fill="#757575" stroke="#757575" points="774.85,-347.86 785.11,-345.23 775.45,-340.88 774.85,-347.86"/>
</g>
<!-- favicon/center.png -->
<g id="node22" class="node">
<title>favicon/center.png</title>
<path fill="none" stroke="#cfffac" d="M666.96,-245.75C666.96,-245.75 557.29,-245.75 557.29,-245.75 553.33,-245.75 549.38,-241.79 549.38,-237.83 549.38,-237.83 549.38,-229.92 549.38,-229.92 549.38,-225.96 553.33,-222 557.29,-222 557.29,-222 666.96,-222 666.96,-222 670.92,-222 674.88,-225.96 674.88,-229.92 674.88,-229.92 674.88,-237.83 674.88,-237.83 674.88,-241.79 670.92,-245.75 666.96,-245.75"/>
<text xml:space="preserve" text-anchor="middle" x="612.12" y="-228.45" font-family="Arial" font-size="14.00" fill="#cfffac">favicon/center.png</text>
</g>
<!-- components/MapView.tsx&#45;&gt;favicon/center.png -->
<g id="edge30" class="edge">
<title>components/MapView.tsx&#45;&gt;favicon/center.png</title>
<path fill="none" stroke="#757575" d="M392.69,-295.53C424.08,-285.52 469.76,-271.25 510,-259.88 522.95,-256.21 536.89,-252.49 550.15,-249.05"/>
<polygon fill="#757575" stroke="#757575" points="550.83,-252.49 559.64,-246.61 549.08,-245.71 550.83,-252.49"/>
</g>
<!-- context/AuthContext.tsx&#45;&gt;firebase/firebase.ts -->
<g id="edge34" class="edge">
<title>context/AuthContext.tsx&#45;&gt;firebase/firebase.ts</title>
<path fill="none" stroke="#757575" d="M691.84,-70.06C766.98,-70.24 879.43,-70.52 953.5,-70.69"/>
<polygon fill="#757575" stroke="#757575" points="953.07,-74.19 963.07,-70.72 953.08,-67.19 953.07,-74.19"/>
</g>
<!-- api/users.ts -->
<g id="node17" class="node">
<title>api/users.ts</title>
<path fill="none" stroke="#c6c5fe" d="M874.21,-23.75C874.21,-23.75 805.04,-23.75 805.04,-23.75 801.08,-23.75 797.12,-19.79 797.12,-15.83 797.12,-15.83 797.12,-7.92 797.12,-7.92 797.12,-3.96 801.08,0 805.04,0 805.04,0 874.21,0 874.21,0 878.17,0 882.12,-3.96 882.12,-7.92 882.12,-7.92 882.12,-15.83 882.12,-15.83 882.12,-19.79 878.17,-23.75 874.21,-23.75"/>
<text xml:space="preserve" text-anchor="middle" x="839.62" y="-6.45" font-family="Arial" font-size="14.00" fill="#c6c5fe">api/users.ts</text>
</g>
<!-- context/AuthContext.tsx&#45;&gt;api/users.ts -->
<g id="edge32" class="edge">
<title>context/AuthContext.tsx&#45;&gt;api/users.ts</title>
<path fill="none" stroke="#757575" d="M661.22,-57.5C697.84,-48.09 748.19,-35.14 785.9,-25.44"/>
<polygon fill="#757575" stroke="#757575" points="786.39,-28.92 795.2,-23.04 784.65,-22.14 786.39,-28.92"/>
</g>
<!-- context/AuthContext.tsx&#45;&gt;constants/emailDomains.ts -->
<g id="edge33" class="edge">
<title>context/AuthContext.tsx&#45;&gt;constants/emailDomains.ts</title>
<path fill="none" stroke="#757575" d="M677.27,-82.2C689.6,-84.85 702.36,-87.78 714.25,-90.88 740.13,-97.6 768.62,-106.43 791.79,-113.98"/>
<polygon fill="#757575" stroke="#757575" points="790.68,-117.3 801.27,-117.1 792.86,-110.65 790.68,-117.3"/>
</g>
<!-- api/gemini.ts&#45;&gt;types/Listing.ts -->
<g id="edge14" class="edge">
<title>api/gemini.ts&#45;&gt;types/Listing.ts</title>
<path fill="none" stroke="#757575" d="M658.76,-381.78C692.35,-375.82 738.43,-367.65 775.54,-361.06"/>
<polygon fill="#757575" stroke="#757575" points="776.02,-364.53 785.26,-359.34 774.8,-357.64 776.02,-364.53"/>
</g>
<!-- api/users.ts&#45;&gt;firebase/firebase.ts -->
<g id="edge17" class="edge">
<title>api/users.ts&#45;&gt;firebase/firebase.ts</title>
<path fill="none" stroke="#757575" d="M882.52,-23.9C897.24,-28.2 913.89,-33.16 929,-37.88 946.32,-43.28 965.25,-49.45 981.92,-54.99"/>
<polygon fill="#757575" stroke="#757575" points="980.49,-58.2 991.08,-58.04 982.7,-51.56 980.49,-58.2"/>
</g>
<!-- app.test.tsx -->
<g id="node18" class="node">
<title>app.test.tsx</title>
<path fill="none" stroke="#c6c5fe" d="M78.96,-381.75C78.96,-381.75 9.79,-381.75 9.79,-381.75 5.83,-381.75 1.88,-377.79 1.88,-373.83 1.88,-373.83 1.88,-365.92 1.88,-365.92 1.88,-361.96 5.83,-358 9.79,-358 9.79,-358 78.96,-358 78.96,-358 82.92,-358 86.88,-361.96 86.88,-365.92 86.88,-365.92 86.88,-373.83 86.88,-373.83 86.88,-377.79 82.92,-381.75 78.96,-381.75"/>
<text xml:space="preserve" text-anchor="middle" x="44.38" y="-364.45" font-family="Arial" font-size="14.00" fill="#c6c5fe">app.test.tsx</text>
</g>
<!-- app.test.tsx&#45;&gt;App.tsx -->
<g id="edge18" class="edge">
<title>app.test.tsx&#45;&gt;App.tsx</title>
<path fill="none" stroke="#757575" d="M87.36,-369.88C97.54,-369.88 108.42,-369.88 118.58,-369.88"/>
<polygon fill="#757575" stroke="#757575" points="118.56,-373.38 128.56,-369.88 118.56,-366.38 118.56,-373.38"/>
</g>
<!-- index.css -->
<g id="node23" class="node">
<title>index.css</title>
<path fill="none" stroke="#cfffac" d="M189.08,-42.75C189.08,-42.75 132.67,-42.75 132.67,-42.75 128.71,-42.75 124.75,-38.79 124.75,-34.83 124.75,-34.83 124.75,-26.92 124.75,-26.92 124.75,-22.96 128.71,-19 132.67,-19 132.67,-19 189.08,-19 189.08,-19 193.04,-19 197,-22.96 197,-26.92 197,-26.92 197,-34.83 197,-34.83 197,-38.79 193.04,-42.75 189.08,-42.75"/>
<text xml:space="preserve" text-anchor="middle" x="160.88" y="-25.45" font-family="Arial" font-size="14.00" fill="#cfffac">index.css</text>
</g>
<!-- main.tsx -->
<g id="node24" class="node">
<title>main.tsx</title>
<path fill="none" stroke="#c6c5fe" d="M69.96,-82.75C69.96,-82.75 18.79,-82.75 18.79,-82.75 14.83,-82.75 10.88,-78.79 10.88,-74.83 10.88,-74.83 10.88,-66.92 10.88,-66.92 10.88,-62.96 14.83,-59 18.79,-59 18.79,-59 69.96,-59 69.96,-59 73.92,-59 77.88,-62.96 77.88,-66.92 77.88,-66.92 77.88,-74.83 77.88,-74.83 77.88,-78.79 73.92,-82.75 69.96,-82.75"/>
<text xml:space="preserve" text-anchor="middle" x="44.38" y="-65.45" font-family="Arial" font-size="14.00" fill="#c6c5fe">main.tsx</text>
</g>
<!-- main.tsx&#45;&gt;App.tsx -->
<g id="edge35" class="edge">
<title>main.tsx&#45;&gt;App.tsx</title>
<path fill="none" stroke="#757575" d="M50.01,-82.97C67.3,-128.14 128.31,-287.44 151.15,-347.09"/>
<polygon fill="#757575" stroke="#757575" points="147.8,-348.13 154.65,-356.22 154.34,-345.63 147.8,-348.13"/>
</g>
<!-- main.tsx&#45;&gt;context/AuthContext.tsx -->
<g id="edge36" class="edge">
<title>main.tsx&#45;&gt;context/AuthContext.tsx</title>
<path fill="none" stroke="#757575" d="M78.24,-70.82C163.28,-70.67 392.88,-70.26 521.22,-70.03"/>
<polygon fill="#757575" stroke="#757575" points="521.05,-73.53 531.04,-70.02 521.04,-66.53 521.05,-73.53"/>
</g>
<!-- main.tsx&#45;&gt;index.css -->
<g id="edge37" class="edge">
<title>main.tsx&#45;&gt;index.css</title>
<path fill="none" stroke="#757575" d="M78.19,-59.41C89.32,-55.52 101.97,-51.11 113.93,-46.93"/>
<polygon fill="#757575" stroke="#757575" points="114.94,-50.28 123.23,-43.68 112.63,-43.67 114.94,-50.28"/>
</g>
<!-- test/setup.ts -->
<g id="node25" class="node">
<title>test/setup.ts</title>
<path fill="none" stroke="#cfffac" d="M80.83,-423.75C80.83,-423.75 7.92,-423.75 7.92,-423.75 3.96,-423.75 0,-419.79 0,-415.83 0,-415.83 0,-407.92 0,-407.92 0,-403.96 3.96,-400 7.92,-400 7.92,-400 80.83,-400 80.83,-400 84.79,-400 88.75,-403.96 88.75,-407.92 88.75,-407.92 88.75,-415.83 88.75,-415.83 88.75,-419.79 84.79,-423.75 80.83,-423.75"/>
<text xml:space="preserve" text-anchor="middle" x="44.38" y="-406.45" font-family="Arial" font-size="14.00" fill="#cfffac">test/setup.ts</text>
</g>
<!-- vite&#45;env.d.ts -->
<g id="node26" class="node">
<title>vite&#45;env.d.ts</title>
<path fill="none" stroke="#cfffac" d="M80.46,-465.75C80.46,-465.75 8.29,-465.75 8.29,-465.75 4.33,-465.75 0.38,-461.79 0.38,-457.83 0.38,-457.83 0.38,-449.92 0.38,-449.92 0.38,-445.96 4.33,-442 8.29,-442 8.29,-442 80.46,-442 80.46,-442 84.42,-442 88.38,-445.96 88.38,-449.92 88.38,-449.92 88.38,-457.83 88.38,-457.83 88.38,-461.79 84.42,-465.75 80.46,-465.75"/>
<text xml:space="preserve" text-anchor="middle" x="44.38" y="-448.45" font-family="Arial" font-size="14.00" fill="#cfffac">vite&#45;env.d.ts</text>
</g>
</g>
</svg>
